<svg xmlns="http://www.w3.org/2000/svg" viewBox="0 0 99.24 99.24"><defs><style>.cls-1,.cls-2{fill:none;stroke:#e39c49;stroke-miterlimit:10;stroke-width:2.5px;}.cls-2{stroke-linecap:round;}</style></defs><title>Asset 7</title><g id="Layer_2" data-name="Layer 2"><g id="Layer_1-2" data-name="Layer 1"><circle class="cls-1" cx="49.62" cy="49.62" r="48.37"/><circle class="cls-1" cx="49.62" cy="49.76" r="41.94" transform="translate(-10.21 86.62) rotate(-76.72)"/><polyline class="cls-1" points="29.14 86.36 29.14 35.5 48.41 35.5 48.41 56.7 67.54 66.11 67.54 87.69"/><polyline class="cls-1" points="43.48 91.25 43.48 75.99 52.56 75.99 52.56 91.25"/><line class="cls-1" x1="10.87" y1="65.83" x2="29.14" y2="56.39"/><polyline class="cls-1" points="29.14 35.5 24.5 38.69 24.5 58.78"/><polyline class="cls-1" points="8.05 44.15 13.35 44.15 13.35 54.15 18.13 54.15 18.13 50.49 24.5 50.49"/><polyline class="cls-1" points="91.48 52.47 85.42 52.47 85.42 49.15 79.08 49.15 79.08 44.15 73.77 44.15 73.77 52.47 68.36 52.47 68.36 49.15 59.07 49.15 59.07 41.86 56.01 40.13 53.05 41.76 53.05 52.15 48.41 52.15"/><line class="cls-2" x1="38.75" y1="40.94" x2="38.75" y2="49.62"/><line class="cls-2" x1="34.59" y1="44.15" x2="42.96" y2="44.15"/><path class="cls-1" d="M67.54,76.83a22.65,22.65,0,0,1,19.18-7.49"/><path class="cls-1" d="M59.05,61.93a49.82,49.82,0,0,1,30,2.16"/><path class="cls-1" d="M47.92,7.85a9.78,9.78,0,0,0-1.24,4.91,10.45,10.45,0,0,0,3.08,6.89,12.07,12.07,0,0,0,8.36,4.11,11.67,11.67,0,0,0,7.26-2.27,11,11,0,0,0,3.82-4.62,10.81,10.81,0,0,0,.85-3.75"/></g></g></svg>