<svg xmlns="http://www.w3.org/2000/svg" viewBox="0 0 99.24 99.24"><defs><style>.cls-1{fill:none;stroke:#e39c49;stroke-miterlimit:10;stroke-width:2.5px;}</style></defs><title>Asset 10</title><g id="Layer_2" data-name="Layer 2"><g id="Layer_1-2" data-name="Layer 1"><circle class="cls-1" cx="49.62" cy="49.62" r="48.37"/><circle class="cls-1" cx="49.62" cy="49.76" r="41.94"/><path class="cls-1" d="M28.82,86.18V75.92a43,43,0,0,1-2.95-3.79,24.12,24.12,0,0,1-2.67-4.49A30.72,30.72,0,0,1,21.79,63a22.27,22.27,0,0,1-.71-3.79A6.09,6.09,0,0,1,21.37,56a2.94,2.94,0,0,1,1.4-1.68,2.73,2.73,0,0,1,2.1,0,3.38,3.38,0,0,1,1.69,1.4A4.42,4.42,0,0,1,27,59.21a15.09,15.09,0,0,0,3.09,2.25,7.13,7.13,0,0,1,2.1,1.26c.6.67,1,1.8.71,3.79"/><path class="cls-1" d="M44,80.55V75.64A24.55,24.55,0,0,0,48,70a23.64,23.64,0,0,0,1.54-3.65q0-8.31,0-16.61a2.89,2.89,0,0,0-2-1.5,2.85,2.85,0,0,0-2.95,2l-.14,4.91V43.91a3.13,3.13,0,0,0-3-1.82,3.32,3.32,0,0,0-2.53,1.54V55.42Q39,47.5,38.91,39.56a3.09,3.09,0,0,0-5.75.28l0,2.95.12,12.77"/><path class="cls-1" d="M27.89,60q0-8.05.05-16.13a2.71,2.71,0,0,1,5.25.17"/><path class="cls-1" d="M71.43,86.18V75.92a44.94,44.94,0,0,0,3-3.79,24.06,24.06,0,0,0,2.66-4.49A30.51,30.51,0,0,0,78.46,63a23.28,23.28,0,0,0,.7-3.79A6.23,6.23,0,0,0,78.88,56a3,3,0,0,0-1.41-1.68,2.73,2.73,0,0,0-2.1,0,3.43,3.43,0,0,0-1.69,1.4,4.42,4.42,0,0,0-.42,3.51,14.82,14.82,0,0,1-3.09,2.25,7.41,7.41,0,0,0-2.1,1.26c-.6.67-1,1.8-.7,3.79"/><path class="cls-1" d="M56.28,80.55V75.64A24.25,24.25,0,0,1,52.21,70a23.76,23.76,0,0,1-1.55-3.65q0-8.31,0-16.61a2.64,2.64,0,0,1,5,.47l.14,4.91V43.91a3.12,3.12,0,0,1,2.94-1.82,3.3,3.3,0,0,1,2.53,1.54V55.42q.08-7.92.14-15.86a3.11,3.11,0,0,1,3-1.83,3.15,3.15,0,0,1,2.81,2.11l0,2.95L67,55.56"/><path class="cls-1" d="M72.35,60q0-8.05,0-16.13a2.71,2.71,0,0,0-5.25.17"/><line class="cls-1" x1="78.88" y1="55.98" x2="91.53" y2="48.1"/><line class="cls-1" x1="87.07" y1="30.87" x2="72.35" y2="45.7"/><line class="cls-1" x1="76.52" y1="17.58" x2="64.28" y2="37.73"/><line class="cls-1" x1="23.19" y1="17.19" x2="35.96" y2="37.73"/><line class="cls-1" x1="12.31" y1="30.61" x2="27.89" y2="45.92"/><line class="cls-1" x1="7.72" y1="47.89" x2="21.37" y2="55.98"/><path class="cls-1" d="M50,35.23a18,18,0,0,0,7.95-7.11c1-1.74,2-3.63,1.46-5.86a5.73,5.73,0,0,0-4.53-4.32A5.9,5.9,0,0,0,50,19.82a5.67,5.67,0,0,0-4.39-2.09,5.65,5.65,0,0,0-4.74,3.77c-.81,2.15,0,4.15.56,5.57C43.46,32,48,34.35,50,35.23Z"/></g></g></svg>