<svg xmlns="http://www.w3.org/2000/svg" viewBox="0 0 100.14 100.14"><defs><style>.cls-1,.cls-2,.cls-3{fill:none;stroke:#e39c49;stroke-width:2.5px;}.cls-1{stroke-miterlimit:10;}.cls-2,.cls-3{stroke-linejoin:bevel;}.cls-3{stroke-linecap:round;}</style></defs><title>Tithesv2</title><g id="Layer_2" data-name="Layer 2"><g id="Layer_1-2" data-name="Layer 1"><circle class="cls-1" cx="50.07" cy="50.07" r="48.82"/><circle class="cls-1" cx="50.07" cy="50.07" r="42.21"/><path class="cls-1" d="M33.88,48.58Q34,39.14,34,29.71A22.19,22.19,0,0,1,58,27.18c9.43,5,11.1,15.24,11.26,16.33V64.06a8.6,8.6,0,0,1-7.46-2,8.43,8.43,0,0,1-2.54-6.19V47.45A14.78,14.78,0,0,1,48.1,45.9C42,42.2,41.26,35.36,41.2,34.64"/><path class="cls-1" d="M52.57,47.63a49.5,49.5,0,0,1-12.63,1.51,49.37,49.37,0,0,1-11.27-1.41q.07,11.76.14,23.51a42.07,42.07,0,0,0,21.4.57c1.28-.32,1.84-.53,3.1-.85a41.9,41.9,0,0,1,21.26.57q-.07-11.83-.14-23.66a6.09,6.09,0,0,0-2.68-1.12,6,6,0,0,0-2.53.14"/><path class="cls-1" d="M51.06,54.21a5,5,0,0,1,3.66-1.83c2.53.1,4.21,2.92,4.57,4.78C60,60.65,56.81,65,51.2,67.44c-5.92-2-9.38-6.31-8.87-9.85.25-1.74,1.63-4.47,4.22-4.93A5.68,5.68,0,0,1,51.06,54.21Z"/><path class="cls-2" d="M34.48,72.43a4,4,0,0,0,3.06,3.46,4.11,4.11,0,0,0,4.65-3l-.14,5.95a4.53,4.53,0,0,0,7.74.42c0-2.44-.1-4.89-.14-7.33"/><path class="cls-2" d="M49.79,79.27v4a4.05,4.05,0,0,0,7.88.28q-.06-6.69-.14-13.38"/><path class="cls-2" d="M57.63,79.13A4.32,4.32,0,0,0,65.28,78l0-8.06"/><line class="cls-3" x1="66.86" y1="24.74" x2="76" y2="16.77"/><line class="cls-3" x1="72.68" y1="34.69" x2="85.16" y2="26.61"/><line class="cls-3" x1="78.12" y1="43.67" x2="90.65" y2="38.46"/><line class="cls-3" x1="34.02" y1="25.17" x2="24.88" y2="17.2"/><line class="cls-3" x1="28.2" y1="35.12" x2="15.71" y2="27.04"/><line class="cls-3" x1="22.76" y1="44.1" x2="10.22" y2="38.89"/></g></g></svg>