<svg xmlns="http://www.w3.org/2000/svg" viewBox="0 0 90.81 88.87"><defs><style>.cls-1{fill:#e39c49;stroke:#e39c49;stroke-miterlimit:10;}.cls-1,.cls-3,.cls-4{stroke-width:0.25px;}.cls-2,.cls-4{fill:none;}.cls-2,.cls-3,.cls-4{stroke:#231f20;stroke-linejoin:bevel;}.cls-3{fill:#231f20;}</style></defs><title>interac</title><g id="Layer_2" data-name="Layer 2"><g id="Layer_1-2" data-name="Layer 1"><rect class="cls-1" x="0.13" y="0.13" width="90.56" height="88.62" rx="7.94"/><rect class="cls-2" x="4.15" y="4.05" width="82.51" height="80.74" rx="7.94"/><path class="cls-3" d="M23.33,84.8a10.09,10.09,0,0,1-4-5.14V48.26a3.32,3.32,0,0,1,6.54.5L26,63.49a.4.4,0,0,0,.37.26.41.41,0,0,0,.4-.31c0-3.3,0-6.6,0-9.9l1.8-.73,1.7-1.21L36.75,60q.07,12.39.14,24.8Z"/><path class="cls-3" d="M18.26,57.48v4.93a8.45,8.45,0,0,1-3.55.92,7.87,7.87,0,0,1-1,0l-1.05-.84,0-3.42Z"/><path class="cls-3" d="M18.26,63.33v4.93a8.46,8.46,0,0,1-3.55.91,7.94,7.94,0,0,1-1,0l-1.05-.85,0-3.41Z"/><path class="cls-3" d="M18.26,69.17V74.1a8.45,8.45,0,0,1-3.55.92,7.87,7.87,0,0,1-1,0l-1.05-.84,0-3.42Z"/><path class="cls-4" d="M19.32,55.4C14.21,57,10.45,58,9.82,58.12A1.21,1.21,0,0,1,9.09,58a1.13,1.13,0,0,1-.49-.59q0-14.86.07-29.75a2.21,2.21,0,0,1,.46-.72,2.34,2.34,0,0,1,.94-.61l18.66-5.26a1.28,1.28,0,0,1,1-.05,1.26,1.26,0,0,1,.66.64q0,14.82,0,29.65L30,52.43l-4,1.11Z"/><path class="cls-3" d="M17.28,56l-3.89,1.11V25.39l3.86-1.09Z"/><path class="cls-3" d="M23.42,44.65l-3.68.94q0-6.37,0-12.74l3.73-1.08v.54a7.25,7.25,0,0,1,2.23-1.43,4,4,0,0,1,2.3-.45,3.75,3.75,0,0,1,2.44,2.07V42.68l-3.63,1c0-3,0-6.08,0-9.13a1.13,1.13,0,0,0-.52-.65c-.63-.32-1.47.32-1.83.58a3.74,3.74,0,0,0-1,1.13Z"/><path class="cls-3" d="M32.69,26l3.7-.92,0,3.13,2.71-.74,0,2.54-2.68.74V37.6a.83.83,0,0,0,.43.5.85.85,0,0,0,1-.21l1.1-.44L39,39.89l-2.82,1.22a3.65,3.65,0,0,1-1.69,0,2.28,2.28,0,0,1-1.17-.59,2,2,0,0,1-.56-1.13l0-7.62-1.48.42,0-2.51,1.46-.49Z"/><path class="cls-3" d="M40.12,36.65c0-2.55,0-5.09,0-7.64A4.08,4.08,0,0,1,41,27.25a4,4,0,0,1,1.41-1.05l4.75-1.41a2.73,2.73,0,0,1,.92-.11,3.56,3.56,0,0,1,.7.14A3.33,3.33,0,0,1,50.4,26.9l0,4.12-6.79,1.83v2.36a2,2,0,0,0,1,.52,2.1,2.1,0,0,0,1.59-.31,2.57,2.57,0,0,0,.6-.6l0-1.8,3.52-1,0,2.71A4.05,4.05,0,0,1,49.2,37a3.42,3.42,0,0,1-.64.45l-3.83,1.31-2.11.1A3.24,3.24,0,0,1,41,38.06,3.3,3.3,0,0,1,40.12,36.65Z"/><path class="cls-1" d="M43.71,30.38l3.06-.8,0-1.2a1.43,1.43,0,0,0-.85-.53,1.74,1.74,0,0,0-1.13.32,3.92,3.92,0,0,0-1.12.91Z"/><path class="cls-3" d="M51.8,23.63V36.09l3.66-1q0-4.17.07-8.35a3,3,0,0,1,3.28-2l0-3.37A4.18,4.18,0,0,0,56.7,22a4.34,4.34,0,0,0-1.27,1.16l0-.59Z"/><path class="cls-3" d="M59.33,25.21V23.52a4,4,0,0,1,3.14-3.45l3.31-.84a2.71,2.71,0,0,1,1.65,0,2.77,2.77,0,0,1,1.2.74,2.67,2.67,0,0,1,.66,1.76v8l.25,1.2-3.27,1a.79.79,0,0,0-.53-.17.75.75,0,0,0-.49.24l-1.76,1a3.8,3.8,0,0,1-2.18.11,3.06,3.06,0,0,1-1.62-.92A3,3,0,0,1,59,30.67l-.07-1.83a3.8,3.8,0,0,1,.88-1.9,4.89,4.89,0,0,1,1.73-1.13A12.56,12.56,0,0,1,63.7,25a3.41,3.41,0,0,0,1.9-1.37l0-1.12a1.53,1.53,0,0,0-.88-.39,1.77,1.77,0,0,0-1.26.46,2.52,2.52,0,0,0-.71.84l0,1.09Z"/><path class="cls-1" d="M65.78,26.79l0,1.55a2.63,2.63,0,0,1-1,1.27c-.07.05-1.14.75-1.68.32a1.07,1.07,0,0,1-.29-.85,2.17,2.17,0,0,1,1-1.51,5.06,5.06,0,0,1,1.38-.6Z"/><path class="cls-3" d="M77.78,20.42l3.2-.84V17.89a2.69,2.69,0,0,0-.74-1.55,2.53,2.53,0,0,0-1.27-.7l-1.76,0-3.8,1.06a3.73,3.73,0,0,0-1.55,1,4,4,0,0,0-1,2.53l0,6.9a2.47,2.47,0,0,0,1.9,2.15l2.54,0a11.4,11.4,0,0,0,2.64-.74,5.37,5.37,0,0,0,2-1.19,5,5,0,0,0,1.23-2.61A6.32,6.32,0,0,0,81.3,23l-3.42.88a2,2,0,0,1-.49,2,2,2,0,0,1-3-.17l0-5.53a1.74,1.74,0,0,1,.46-.84c.26-.27.68-.37,1.51-.56.62-.15.81-.14,1,0a.86.86,0,0,1,.36.53Z"/></g></g></svg>