<svg xmlns="http://www.w3.org/2000/svg" viewBox="0 0 99.24 99.24"><defs><style>.cls-1,.cls-2{fill:none;stroke:#e39c49;stroke-miterlimit:10;stroke-width:2.5px;}.cls-2{stroke-linecap:round;}</style></defs><title>Asset 9</title><g id="Layer_2" data-name="Layer 2"><g id="Layer_1-2" data-name="Layer 1"><circle class="cls-1" cx="49.62" cy="49.62" r="48.37"/><circle class="cls-1" cx="49.62" cy="49.76" r="41.94"/><line class="cls-1" x1="30.53" y1="87.11" x2="69.65" y2="87.11"/><circle class="cls-1" cx="49.62" cy="73.4" r="5.11"/><path class="cls-1" d="M47,77.77a23.91,23.91,0,0,1-9.49,9.34"/><path class="cls-1" d="M51.66,78.08a23.65,23.65,0,0,0,3.45,4.21,23.9,23.9,0,0,0,7.31,4.82"/><path class="cls-1" d="M31.42,35.38l35.76.08a40.09,40.09,0,0,1-.61,13.92c-1,4.67-2.22,9.88-6.77,13.92-1.26,1.11-4.89,4.34-10.23,4.38-6,0-10.09-4-11.38-5.31-4-4.07-5-8.89-6.07-13.84A44.13,44.13,0,0,1,31.42,35.38Z"/><path class="cls-2" d="M37.19,42.45a35.91,35.91,0,0,0,6.46,16.16"/><circle class="cls-1" cx="55.5" cy="28.1" r="2.9"/><circle class="cls-1" cx="43.27" cy="18.27" r="2.28"/><circle class="cls-1" cx="53.37" cy="18.37" r="0.95"/><line class="cls-2" x1="14.63" y1="39.67" x2="26.14" y2="44.38"/><line class="cls-2" x1="14.2" y1="56.66" x2="26.83" y2="56.75"/><line class="cls-2" x1="22.22" y1="73.4" x2="31.22" y2="66.51"/><line class="cls-2" x1="72.06" y1="44.55" x2="83.82" y2="39.76"/><line class="cls-2" x1="72.15" y1="56.71" x2="84.08" y2="56.71"/><line class="cls-2" x1="67.01" y1="66.25" x2="76.07" y2="74"/></g></g></svg>