<svg xmlns="http://www.w3.org/2000/svg" viewBox="0 0 100.14 100.14"><defs><style>.cls-1,.cls-2,.cls-3{fill:none;stroke:#e39c49;stroke-width:2.5px;}.cls-1{stroke-miterlimit:10;}.cls-2{stroke-linecap:round;}.cls-2,.cls-3{stroke-linejoin:round;}</style></defs><title>Online</title><g id="Layer_2" data-name="Layer 2"><g id="Layer_1-2" data-name="Layer 1"><circle class="cls-1" cx="50.07" cy="50.07" r="48.82"/><circle class="cls-1" cx="50.07" cy="50.07" r="42.21" transform="translate(-4.69 5.18) rotate(-5.65)"/><path class="cls-1" d="M19,78.65l-.16-9.42,11-5.63V47.55L50.11,28.68,70.38,47.83V63L81.93,69l-.37,9.22"/><path class="cls-2" d="M44.69,68.31l-.07-14.07a1.25,1.25,0,0,1,.91-1,1.27,1.27,0,0,1,.85.14l11.54,6.55a1,1,0,0,1,.21,2l-11.4,7.18a1.21,1.21,0,0,1-2-.85Z"/><line class="cls-3" x1="50.11" y1="28.68" x2="50.07" y2="13.95"/><line class="cls-3" x1="44.2" y1="18.55" x2="56.21" y2="18.55"/><path class="cls-1" d="M67.51,11.64a6.47,6.47,0,0,0,10.8,7.07"/><polyline class="cls-1" points="8.14 45.25 13.51 45.25 13.51 55.15 18.15 55.15 18.15 51.21 24.35 51.21 24.35 56.42 29.84 56.42"/><polyline class="cls-1" points="92.13 53.67 85.44 53.67 85.44 50.07 79.39 50.07 79.39 45.25 73.9 45.25 73.9 55.71 70.38 55.71"/></g></g></svg>