<svg xmlns="http://www.w3.org/2000/svg" viewBox="0 0 99.24 99.24"><defs><style>.cls-1,.cls-2{fill:none;stroke:#e39c49;stroke-miterlimit:10;stroke-width:2.5px;}.cls-2{stroke-linecap:round;}</style></defs><title>Asset 6</title><g id="Layer_2" data-name="Layer 2"><g id="Layer_1-2" data-name="Layer 1"><circle class="cls-1" cx="49.62" cy="49.62" r="48.37"/><circle class="cls-1" cx="49.62" cy="49.76" r="41.94" transform="translate(-10.21 86.62) rotate(-76.72)"/><line class="cls-2" x1="23.19" y1="17.2" x2="35.21" y2="37.07"/><line class="cls-2" x1="76.63" y1="17.67" x2="65.3" y2="37.19"/><line class="cls-2" x1="50.13" y1="85.82" x2="50.13" y2="20.78"/><line class="cls-2" x1="42.05" y1="27.43" x2="58.09" y2="27.43"/><path class="cls-1" d="M50.13,85.82A32,32,0,0,0,27,81.92V43.31a21.14,21.14,0,0,1,7.45-1.66c8.14-.3,13.95,4.3,15.68,5.78A23.88,23.88,0,0,1,65,41.79a22.78,22.78,0,0,1,9,1.81V82.07a32.51,32.51,0,0,0-8.39-.8A33.38,33.38,0,0,0,50.13,85.82Z"/><polyline class="cls-1" points="27 46.59 22.45 46.59 22.45 81.71"/><polyline class="cls-1" points="74.01 46.59 78.62 46.59 78.62 80.06"/><line class="cls-1" x1="12.51" y1="30.2" x2="27" y2="44.68"/><line class="cls-1" x1="7.73" y1="47.71" x2="22.45" y2="56.96"/><line class="cls-1" x1="87.19" y1="31.08" x2="73.9" y2="44.37"/><line class="cls-1" x1="91.53" y1="48.02" x2="78.62" y2="56.56"/><line class="cls-1" x1="28.71" y1="86.12" x2="70.74" y2="86.12"/></g></g></svg>