<svg xmlns="http://www.w3.org/2000/svg" viewBox="0 0 99.24 99.24"><defs><style>.cls-1,.cls-2{fill:none;stroke:#e39c49;stroke-miterlimit:10;stroke-width:2.5px;}.cls-2{stroke-linecap:round;}</style></defs><title>Asset 8</title><g id="Layer_2" data-name="Layer 2"><g id="Layer_1-2" data-name="Layer 1"><circle class="cls-1" cx="49.62" cy="49.62" r="48.37"/><circle class="cls-1" cx="49.62" cy="49.76" r="41.94" transform="translate(-10.21 86.62) rotate(-76.72)"/><line class="cls-1" x1="67.55" y1="49.07" x2="67.58" y2="87.67"/><line class="cls-2" x1="67.56" y1="33.03" x2="67.56" y2="25.07"/><line class="cls-2" x1="58.91" y1="33.03" x2="53.2" y2="27.53"/><line class="cls-2" x1="75.74" y1="33.03" x2="81.12" y2="27.76"/><circle class="cls-2" cx="67.66" cy="42.95" r="6.67"/><circle class="cls-2" cx="40.24" cy="44.25" r="13.86"/><line class="cls-2" x1="40.24" y1="90.65" x2="40.24" y2="58.11"/><line class="cls-2" x1="40.24" y1="73.85" x2="49.62" y2="62.3"/><line class="cls-2" x1="40.24" y1="73.85" x2="30.77" y2="62.07"/><path class="cls-1" d="M18.9,78.31A34.85,34.85,0,0,1,30.77,62.07c2.58-1.87,5.42-3.88,9.47-4,1,0,5.38,0,11.61,5.53C60.68,71.42,64.05,82,65.42,88"/></g></g></svg>