<svg xmlns="http://www.w3.org/2000/svg" viewBox="0 0 99.24 99.24"><defs><style>.cls-1,.cls-2{fill:none;stroke:#e39c49;stroke-miterlimit:10;stroke-width:2.5px;}.cls-2{stroke-linecap:round;}</style></defs><title>Asset 5</title><g id="Layer_2" data-name="Layer 2"><g id="Layer_1-2" data-name="Layer 1"><circle class="cls-1" cx="49.62" cy="49.62" r="48.37"/><circle class="cls-1" cx="49.62" cy="49.76" r="41.94" transform="translate(-10.21 86.62) rotate(-76.72)"/><path class="cls-2" d="M77.21,23.55a38.27,38.27,0,0,1-18.1,18.54A35.43,35.43,0,0,1,36.65,45,35.11,35.11,0,0,1,19.1,35.55a35.31,35.31,0,0,1,17.55-10A35.68,35.68,0,0,1,59.44,28a37.29,37.29,0,0,1,18,18.21"/><line class="cls-2" x1="12.34" y1="53.76" x2="15.61" y2="51.25"/><line class="cls-2" x1="34.8" y1="53.76" x2="38.07" y2="51.25"/><line class="cls-2" x1="58.35" y1="53.76" x2="61.62" y2="51.25"/><line class="cls-2" x1="82.38" y1="53.76" x2="85.66" y2="51.25"/><circle class="cls-2" cx="44.42" cy="35.47" r="3.98"/><path class="cls-2" d="M9.24,61.14c2.7-1,5.54-2,8.48-3.33,2.76-1.19,5.34-2.42,7.74-3.64a.93.93,0,0,1,1.6.88,4,4,0,0,0-.2,2.71,4.68,4.68,0,0,0,2.78,2.71c2.21,1,4.56.51,7.33-.4a49.09,49.09,0,0,0,11.66-5.69,1,1,0,0,1,1.87.79,4,4,0,0,0,.08,3c1.35,2.6,6.38,2.21,8.28,2.07a22.56,22.56,0,0,0,12.58-5.46,1.56,1.56,0,0,1,2.11-.71,1.54,1.54,0,0,1,.63,1.79c0,.7,0,3.37,1.87,4.74.35.26,1.68,1.15,5.93.2a26.13,26.13,0,0,0,9-4"/><path class="cls-2" d="M13.28,70.71c2-.8,4.1-1.73,6.28-2.8,1.74-.86,3.38-1.73,4.9-2.6a1.49,1.49,0,0,1,2.05-.68,1.46,1.46,0,0,1,.51,1.7,4.47,4.47,0,0,0,.71,3.44c2.36,2.9,9.51.49,12.27-.44a32.36,32.36,0,0,0,8-4,1.6,1.6,0,0,1,2.14-1,1.58,1.58,0,0,1,.32,2.09,3,3,0,0,0-.21,2.1c.55,1.76,3.12,2.29,4.41,2.55,6,1.24,14.87-4.4,16.92-5.75a1.63,1.63,0,0,1,2.19-1,1.58,1.58,0,0,1,.63,1.81A3.74,3.74,0,0,0,74.05,69c.56,1.8,2.74,2.39,3.72,2.65,4,1.08,7.69-1.41,8.66-2.1"/><path class="cls-2" d="M19.36,78.8a20.14,20.14,0,0,0,5.19-2.94l.25-.2A1.27,1.27,0,1,1,27,77a3.19,3.19,0,0,0-.24,2.59c1.08,2.37,6.57,1.82,8.24,1.65A25.1,25.1,0,0,0,47.9,75.78a1.3,1.3,0,1,1,2.4.88,4.46,4.46,0,0,0,.22,3.87c2.06,2.84,9.44.54,12.19-.31A35,35,0,0,0,72,75.69a1.53,1.53,0,0,1,1.87-.83,1.55,1.55,0,0,1,.19,2.23,3.13,3.13,0,0,0,.22,2.43,3.2,3.2,0,0,0,3.44,1.35"/></g></g></svg>