<svg xmlns="http://www.w3.org/2000/svg" viewBox="0 0 54.39 56.57"><defs><style>.cls-1{fill:#ed9322;}.cls-2,.cls-3{fill:none;stroke:#ed9322;stroke-width:2px;}.cls-2{stroke-miterlimit:10;}.cls-3{stroke-linejoin:bevel;}</style></defs><title>Asset 2</title><g id="Layer_2" data-name="Layer 2"><g id="Layer_1-2" data-name="Layer 1"><path class="cls-1" d="M30.71,0,29.05.22a13,13,0,0,0-1.64.26l-1.62.3L24.2,1.2c-1.07.25-2.08.69-3.12,1s-2,.82-3,1.37a29.68,29.68,0,0,0-9.85,8.13A30.31,30.31,0,0,0,5,17.17a26.15,26.15,0,0,0-1.8,6,25.54,25.54,0,0,0,1,12.41,27.71,27.71,0,0,0,17.08,17.5,32.54,32.54,0,0,0,25.28-2,30.7,30.7,0,0,1-12.4,5.06,30,30,0,0,1-13.6-.81,27.59,27.59,0,0,1-6.36-2.76,30.3,30.3,0,0,1-5.53-4.24A30.2,30.2,0,0,1,1.44,36.56a28,28,0,0,1-1-13.86,28.87,28.87,0,0,1,2.21-6.63,29.29,29.29,0,0,1,3.8-5.82,29.47,29.47,0,0,1,11.05-8c1-.48,2.14-.76,3.2-1.14A31.5,31.5,0,0,1,24,.4,30,30,0,0,1,30.71,0Z"/><polygon class="cls-2" points="39.54 33.17 38.26 47.94 20.36 47.94 19.52 39.07 18.96 33.17 21.57 36.63 24.55 40.55 29.25 33.17 34.54 41.09 39.54 33.17"/><polyline class="cls-2" points="31.18 36.2 31.18 16.66 38.26 16.66 38.26 12.24 31.18 12.24 31.18 4.8 29.25 4.8 27.32 4.8 27.32 12.24 20.24 12.24 20.24 16.66 27.32 16.66 27.32 36.2"/><path class="cls-2" d="M37.45,19.57c-.38.39-3,3.17-2.33,6.28.85,3.87,6.13,5.07,9,5.11s8.27-1,9.18-4.88c.77-3.23-2.11-6.18-2.44-6.51Z"/><line class="cls-2" x1="44.08" y1="30.96" x2="44.2" y2="38.99"/><line class="cls-2" x1="39.54" y1="38.99" x2="49.19" y2="38.99"/><path class="cls-3" d="M21.57,36.63,19,33.17l.55,5.9L10.59,39c.08-1.59.15-3.18.23-4.77a5.53,5.53,0,0,1-6.05-4.3C4.4,27.12,7,24,10.71,24.1l13-4.88-2.79,5.35Z"/><path class="cls-2" d="M10.82,34.22l.47-10.46Z"/></g></g></svg>